# xmcd
#
# Track frame offsets:
#	150
#	173394
#	184357
#
# Disc length: 2830 seconds
#
# Revision: 1
# Processed by: cddbd v1.5.1PL0 Copyright (c) Steve Scherf et al.
# Submitted via: audiograbber 1.83.01
#
DISCID=1c0b0c03
DTITLE=Allman Brothers Band - Verizon Wireless Arena, Manchester, NH, 7.9.05 - 
DTITLE=Disc Three
DYEAR=2005
DGENRE=Blues
TTITLE0=In Memory of Elizabeth Reed
TTITLE1=Applause
TTITLE2=One Way Out
EXTD=
EXTT0=
EXTT1=
EXTT2=
PLAYORDER=
